<svg width="2467" height="892" viewBox="0 0 2467 892" fill="none" xmlns="http://www.w3.org/2000/svg">
<path d="M915.43 403.068V92H1025.86C1041.86 92 1056.3 95.2587 1069.19 101.776C1082.22 108.294 1092.52 117.7 1100.07 129.995C1107.77 142.141 1111.63 156.731 1111.63 173.767C1111.63 182.061 1110.29 190.209 1107.63 198.208C1104.96 206.207 1101.18 213.242 1096.29 219.316C1091.41 225.389 1085.48 229.685 1078.52 232.203C1088 234.574 1095.85 238.869 1102.07 245.09C1108.44 251.164 1113.48 258.273 1117.18 266.421C1120.88 274.567 1123.48 283.011 1124.96 291.751C1126.59 300.49 1127.4 308.785 1127.4 316.636C1127.4 333.226 1123.4 348.039 1115.4 361.075C1107.4 374.109 1096.67 384.405 1083.18 391.959C1069.85 399.365 1055.11 403.068 1038.97 403.068H915.43ZM961.647 363.075H1034.52C1044.01 363.075 1052.6 360.704 1060.3 355.964C1068.15 351.224 1074.37 344.707 1078.96 336.411C1083.56 327.968 1085.85 318.487 1085.85 307.97C1085.85 298.787 1083.56 290.122 1078.96 281.974C1074.37 273.68 1068.15 267.013 1060.3 261.976C1052.6 256.941 1044.01 254.422 1034.52 254.422H961.647V363.075ZM961.647 215.095H1020.97C1033.12 215.095 1043.56 211.392 1052.3 203.985C1061.04 196.579 1065.41 186.431 1065.41 173.544C1065.41 159.768 1061.04 149.474 1052.3 142.66C1043.56 135.698 1033.12 132.217 1020.97 132.217H961.647V215.095ZM1156.08 319.747V180.877H1202.29V308.415C1202.29 318.34 1204.74 327.375 1209.62 335.522C1214.51 343.67 1221.03 350.187 1229.18 355.075C1237.32 359.815 1246.28 362.186 1256.06 362.186C1265.99 362.186 1274.95 359.815 1282.95 355.075C1291.09 350.187 1297.54 343.67 1302.28 335.522C1307.17 327.375 1309.61 318.34 1309.61 308.415V180.877H1355.83L1356.05 403.068H1309.83L1309.61 379.072C1302.06 388.256 1292.65 395.514 1281.39 400.847C1270.13 406.179 1258.06 408.846 1245.17 408.846C1228.73 408.846 1213.77 404.847 1200.29 396.847C1186.81 388.848 1176.07 378.109 1168.07 364.63C1160.07 351.15 1156.08 336.189 1156.08 319.747ZM1467.27 407.29C1455.56 406.55 1444.16 404.179 1433.05 400.181C1421.93 396.181 1412.16 390.774 1403.72 383.96C1395.42 376.998 1389.2 368.852 1385.05 359.519L1424.38 342.633C1426.31 346.633 1429.64 350.557 1434.38 354.408C1439.27 358.261 1444.97 361.445 1451.49 363.963C1458 366.333 1464.82 367.518 1471.93 367.518C1478.89 367.518 1485.33 366.555 1491.26 364.63C1497.33 362.556 1502.3 359.445 1506.14 355.298C1510 351.15 1511.93 346.188 1511.93 340.411C1511.93 333.892 1509.71 328.857 1505.26 325.301C1500.97 321.598 1495.56 318.784 1489.04 316.858C1482.52 314.933 1476.01 313.081 1469.49 311.304C1454.98 308.045 1441.64 303.601 1429.49 297.971C1417.5 292.196 1407.94 284.863 1400.83 275.975C1393.72 266.939 1390.16 255.904 1390.16 242.868C1390.16 228.648 1394.01 216.353 1401.72 205.984C1409.42 195.468 1419.49 187.394 1431.94 181.766C1444.52 176.137 1457.93 173.323 1472.15 173.323C1489.93 173.323 1506.23 177.1 1521.04 184.654C1535.84 192.208 1547.17 202.577 1555.03 215.761L1518.37 237.536C1516.15 233.092 1512.82 229.092 1508.37 225.537C1503.93 221.983 1498.89 219.167 1493.26 217.093C1487.63 214.872 1481.78 213.613 1475.7 213.316C1468.15 213.021 1461.12 213.909 1454.6 215.983C1448.23 217.909 1443.12 221.02 1439.27 225.315C1435.42 229.611 1433.49 235.092 1433.49 241.757C1433.49 248.274 1435.79 253.164 1440.38 256.422C1444.97 259.533 1450.75 262.052 1457.71 263.976C1464.82 265.902 1472.08 268.05 1479.48 270.42C1492.66 274.567 1505.04 279.678 1516.6 285.751C1528.15 291.677 1537.47 299.008 1544.58 307.748C1551.7 316.487 1555.1 327.154 1554.81 339.743C1554.81 353.668 1550.59 365.889 1542.14 376.406C1533.85 386.923 1523.03 394.922 1509.71 400.402C1496.37 405.884 1482.23 408.179 1467.27 407.29ZM1734.91 339.966L1776.24 362.407C1766.16 376.48 1753.35 387.737 1737.8 396.181C1722.4 404.624 1705.66 408.846 1687.58 408.846C1667.13 408.846 1648.47 403.587 1631.59 393.07C1614.85 382.552 1601.45 368.481 1591.37 350.853C1581.45 333.078 1576.48 313.452 1576.48 291.973C1576.48 275.678 1579.37 260.496 1585.15 246.423C1590.92 232.203 1598.85 219.761 1608.93 209.095C1619.15 198.282 1630.99 189.839 1644.47 183.765C1657.96 177.692 1672.32 174.655 1687.58 174.655C1705.66 174.655 1722.4 178.877 1737.8 187.32C1753.35 195.763 1766.16 207.096 1776.24 221.315L1734.91 243.757C1728.68 236.351 1721.43 230.721 1713.13 226.871C1704.84 222.87 1696.32 220.872 1687.58 220.872C1675.44 220.872 1664.4 224.204 1654.48 230.871C1644.69 237.388 1636.92 246.053 1631.15 256.867C1625.52 267.532 1622.7 279.234 1622.7 291.973C1622.7 304.564 1625.59 316.266 1631.37 327.08C1637.14 337.745 1644.92 346.336 1654.7 352.853C1664.63 359.372 1675.58 362.63 1687.58 362.63C1696.77 362.63 1705.5 360.556 1713.8 356.408C1722.09 352.261 1729.13 346.78 1734.91 339.966ZM1983.57 180.877H2029.79V403.068H1983.35L1981.58 370.85C1975.06 382.257 1966.25 391.44 1955.14 398.402C1944.02 405.365 1930.92 408.846 1915.81 408.846C1899.51 408.846 1884.18 405.809 1869.81 399.736C1855.44 393.514 1842.77 384.923 1831.82 373.961C1821 362.999 1812.56 350.41 1806.48 336.189C1800.42 321.821 1797.38 306.415 1797.38 289.973C1797.38 274.123 1800.33 259.236 1806.26 245.313C1812.2 231.24 1820.4 218.946 1830.93 208.428C1841.45 197.911 1853.59 189.691 1867.36 183.765C1881.3 177.692 1896.18 174.655 1912.03 174.655C1928.17 174.655 1942.4 178.358 1954.69 185.765C1967.12 193.023 1977.42 202.356 1985.58 213.761L1983.57 180.877ZM1914.69 364.186C1927.72 364.186 1939.14 361.001 1948.91 354.631C1958.69 348.113 1966.25 339.374 1971.57 328.412C1977.06 317.45 1979.79 305.304 1979.79 291.973C1979.79 278.494 1977.06 266.273 1971.57 255.311C1966.09 244.35 1958.47 235.685 1948.69 229.315C1939.05 222.797 1927.72 219.538 1914.69 219.538C1901.81 219.538 1890.04 222.797 1879.36 229.315C1868.7 235.832 1860.25 244.571 1854.04 255.533C1847.82 266.495 1844.7 278.641 1844.7 291.973C1844.7 305.453 1847.89 317.673 1854.26 328.634C1860.78 339.448 1869.3 348.113 1879.81 354.631C1890.47 361.001 1902.11 364.186 1914.69 364.186ZM1026.3 785.158C1009.27 785.158 992.902 782.492 977.2 777.159C961.498 771.827 947.796 764.199 936.094 754.274C924.392 744.201 916.023 732.276 910.987 718.501L954.315 702.28C956.832 709.391 961.647 715.76 968.757 721.39C976.015 726.87 984.606 731.166 994.531 734.276C1004.6 737.387 1015.19 738.943 1026.3 738.943C1038.15 738.943 1049.26 737.016 1059.63 733.166C1070.15 729.315 1078.59 723.981 1084.96 717.168C1091.48 710.354 1094.74 702.355 1094.74 693.17C1094.74 683.69 1091.33 675.914 1084.52 669.841C1077.85 663.768 1069.26 658.953 1058.74 655.398C1048.38 651.843 1037.56 649.177 1026.3 647.4C1004.53 643.844 984.977 638.66 967.646 631.846C950.462 625.031 936.836 615.477 926.763 603.183C916.838 590.889 911.875 574.89 911.875 555.189C911.875 536.673 917.134 520.528 927.651 506.752C938.316 492.976 952.315 482.31 969.646 474.756C987.125 467.053 1006.01 463.202 1026.3 463.202C1043.04 463.202 1059.19 465.868 1074.74 471.201C1090.44 476.385 1104.22 484.015 1116.07 494.087C1128.07 504.011 1136.66 516.083 1141.84 530.304L1098.07 546.08C1095.55 538.821 1090.74 532.525 1083.63 527.193C1076.52 521.713 1067.93 517.417 1057.86 514.306C1047.93 511.196 1037.41 509.64 1026.3 509.64C1014.45 509.492 1003.34 511.417 992.976 515.417C982.754 519.268 974.386 524.601 967.867 531.415C961.35 538.229 958.092 546.154 958.092 555.189C958.092 566.299 961.129 574.742 967.201 580.519C973.275 586.296 981.422 590.592 991.642 593.406C1002.01 596.074 1013.57 598.517 1026.3 600.738C1046.75 603.998 1065.63 609.405 1082.96 616.959C1100.44 624.513 1114.44 634.586 1124.96 647.177C1135.62 659.62 1140.96 674.951 1140.96 693.17C1140.96 711.539 1135.62 727.684 1124.96 741.609C1114.44 755.385 1100.44 766.124 1082.96 773.827C1065.63 781.381 1046.75 785.158 1026.3 785.158ZM1186.66 557.189H1232.88V779.381H1186.66V557.189ZM1210.21 524.971C1203.1 524.971 1197.18 522.676 1192.44 518.083C1187.7 513.491 1185.33 507.714 1185.33 500.752C1185.33 493.938 1187.7 488.236 1192.44 483.644C1197.18 478.904 1203.03 476.533 1209.99 476.533C1216.81 476.533 1222.58 478.904 1227.32 483.644C1232.06 488.236 1234.43 493.938 1234.43 500.752C1234.43 507.714 1232.06 513.491 1227.32 518.083C1222.73 522.676 1217.03 524.971 1210.21 524.971ZM1284.3 779.381V557.189H1330.52V580.742C1338.22 571.557 1347.63 564.299 1358.74 558.966C1370 553.634 1382.14 550.968 1395.17 550.968C1411.03 550.968 1425.61 554.819 1438.95 562.522C1452.29 570.076 1462.87 580.149 1470.73 592.74C1478.57 580.149 1489.01 570.076 1502.06 562.522C1515.23 554.819 1529.75 550.968 1545.6 550.968C1562.05 550.968 1577 554.968 1590.48 562.966C1603.97 570.965 1614.7 581.704 1622.7 595.184C1630.7 608.663 1634.7 623.625 1634.7 640.067V779.381H1588.48V651.843C1588.48 642.067 1586.12 633.105 1581.38 624.958C1576.64 616.811 1570.27 610.219 1562.27 605.183C1554.27 600.146 1545.38 597.628 1535.61 597.628C1525.82 597.628 1516.94 599.998 1508.94 604.738C1500.94 609.479 1494.57 615.922 1489.84 624.068C1485.1 632.216 1482.73 641.474 1482.73 651.843V779.381H1436.51V651.843C1436.51 641.474 1434.14 632.216 1429.4 624.068C1424.65 615.922 1418.21 609.479 1410.07 604.738C1402.07 599.998 1393.18 597.628 1383.4 597.628C1373.77 597.628 1364.89 600.146 1356.74 605.183C1348.74 610.219 1342.37 616.811 1337.63 624.958C1332.89 633.105 1330.52 642.067 1330.52 651.843V779.381H1284.3ZM1725.43 890.477H1679.22V557.189H1725.43V589.852C1732.84 578.445 1742.31 569.188 1753.87 562.077C1765.42 554.968 1779.05 551.412 1794.76 551.412C1810.9 551.412 1826.01 554.449 1840.08 560.522C1854.3 566.596 1866.75 575.039 1877.41 585.852C1888.07 596.517 1896.45 608.886 1902.52 622.958C1908.59 637.03 1911.63 652.14 1911.63 668.285C1911.63 684.432 1908.59 699.614 1902.52 713.834C1896.45 728.055 1888.07 740.572 1877.41 751.385C1866.75 762.05 1854.3 770.419 1840.08 776.493C1826.01 782.566 1810.9 785.603 1794.76 785.603C1779.05 785.603 1765.42 782.047 1753.87 774.938C1742.31 767.679 1732.84 758.422 1725.43 747.163V890.477ZM1794.31 596.074C1781.42 596.074 1770.09 599.332 1760.32 605.849C1750.54 612.366 1742.91 621.107 1737.43 632.068C1731.94 642.881 1729.21 654.954 1729.21 668.285C1729.21 681.616 1731.94 693.763 1737.43 704.725C1742.91 715.687 1750.54 724.425 1760.32 730.944C1770.09 737.461 1781.42 740.72 1794.31 740.72C1807.05 740.72 1818.75 737.535 1829.42 731.166C1840.08 724.648 1848.6 715.908 1854.97 704.946C1861.34 693.986 1864.52 681.765 1864.52 668.285C1864.52 655.102 1861.34 643.029 1854.97 632.068C1848.75 621.107 1840.31 612.366 1829.65 605.849C1818.97 599.332 1807.19 596.074 1794.31 596.074ZM1944.81 779.381V446.093H1991.01V779.381H1944.81ZM2138.9 785.158C2118.47 785.158 2099.81 779.899 2082.92 769.382C2066.18 758.865 2052.77 744.794 2042.69 727.165C2032.77 709.391 2027.81 689.764 2027.81 668.285C2027.81 651.991 2030.71 636.809 2036.48 622.736C2042.26 608.516 2050.18 596.074 2060.26 585.407C2070.47 574.594 2082.32 566.151 2095.81 560.077C2109.29 554.005 2123.66 550.968 2138.9 550.968C2155.95 550.968 2171.57 554.523 2185.79 561.633C2200.01 568.596 2212.16 578.298 2222.24 590.74C2232.3 603.035 2239.71 617.256 2244.45 633.401C2249.19 649.398 2250.6 666.434 2248.68 684.506H2077.36C2079.29 694.726 2082.99 703.985 2088.48 712.279C2094.1 720.427 2101.22 726.87 2109.8 731.61C2118.54 736.35 2128.24 738.794 2138.9 738.943C2150.17 738.943 2160.38 736.127 2169.57 730.499C2178.91 724.87 2186.53 717.093 2192.45 707.169L2239.34 718.056C2230.46 737.758 2217.05 753.903 2199.13 766.494C2181.2 778.936 2161.13 785.158 2138.9 785.158ZM2075.81 649.177H2202.01C2200.54 638.512 2196.76 628.884 2190.68 620.291C2184.76 611.553 2177.27 604.665 2168.24 599.628C2159.35 594.443 2149.58 591.852 2138.9 591.852C2128.4 591.852 2118.61 594.369 2109.58 599.406C2100.69 604.442 2093.29 611.329 2087.36 620.07C2081.58 628.661 2077.73 638.364 2075.81 649.177ZM2353 783.603C2341.29 782.863 2329.89 780.492 2318.78 776.493C2307.67 772.493 2297.89 767.087 2289.44 760.273C2281.15 753.311 2274.93 745.164 2270.78 735.832L2310.11 718.945C2312.04 722.945 2315.37 726.87 2320.11 730.721C2325 734.573 2330.7 737.758 2337.22 740.275C2343.74 742.646 2350.55 743.831 2357.67 743.831C2364.62 743.831 2371.06 742.867 2377 740.943C2383.06 738.869 2388.02 735.758 2391.88 731.61C2395.73 727.462 2397.65 722.501 2397.65 716.724C2397.65 710.205 2395.44 705.169 2390.99 701.614C2386.7 697.911 2381.29 695.097 2374.77 693.17C2368.25 691.246 2361.74 689.393 2355.21 687.616C2340.71 684.358 2327.37 679.913 2315.23 674.284C2303.23 668.508 2293.67 661.176 2286.56 652.288C2279.45 643.252 2275.9 632.216 2275.9 619.181C2275.9 604.96 2279.74 592.666 2287.45 582.296C2295.16 571.78 2305.22 563.706 2317.67 558.078C2330.25 552.449 2343.66 549.635 2357.89 549.635C2375.66 549.635 2391.95 553.412 2406.77 560.966C2421.58 568.521 2432.92 578.89 2440.76 592.073L2404.09 613.848C2401.88 609.405 2398.55 605.405 2394.1 601.849C2389.65 598.295 2384.62 595.48 2378.99 593.406C2373.36 591.184 2367.51 589.926 2361.44 589.629C2353.89 589.333 2346.85 590.221 2340.33 592.295C2333.96 594.221 2328.84 597.332 2325 601.628C2321.15 605.923 2319.23 611.405 2319.23 618.07C2319.23 624.587 2321.51 629.476 2326.11 632.735C2330.7 635.846 2336.48 638.364 2343.44 640.289C2350.55 642.215 2357.81 644.363 2365.22 646.732C2378.39 650.88 2390.77 655.991 2402.32 662.063C2413.88 667.99 2423.2 675.321 2430.32 684.061C2437.43 692.8 2440.83 703.466 2440.54 716.056C2440.54 729.981 2436.32 742.201 2427.87 752.719C2419.58 763.236 2408.76 771.234 2395.44 776.715C2382.1 782.196 2367.95 784.492 2353 783.603Z" fill="#1A1A1A"/>
<path d="M725.154 30H83.625C37.4402 30 0 67.4402 0 113.625V755.154C0 801.339 37.4402 838.779 83.625 838.779H725.154C771.339 838.779 808.779 801.339 808.779 755.154V113.625C808.779 67.4402 771.339 30 725.154 30Z" fill="#007AFF"/>
<path d="M297.084 528.95C274.911 530.427 253.478 525.254 235.738 514.906V334.565C251.26 325.697 268.999 320.523 288.216 320.523C348.083 320.523 395.385 370.782 391.689 430.649C389.472 482.386 348.083 524.515 297.084 528.95Z" fill="white"/>
<path d="M390.212 564.424C419.036 593.248 447.861 622.074 476.687 650.899C479.643 653.855 478.164 659.768 473.729 660.506C460.426 664.202 445.644 665.68 430.123 665.68H241.652C238.696 665.68 235.738 662.724 235.738 659.768V580.683C235.738 576.989 239.434 574.031 243.129 574.771C255.694 578.466 268.999 580.683 283.041 581.423C314.822 582.162 344.387 574.771 371.733 557.033C376.168 554.075 381.342 554.815 385.038 558.51C386.516 560.728 387.994 562.206 390.212 564.424Z" fill="white"/>
<path d="M572.03 534.119C572.03 568.857 559.465 603.594 532.858 628.724C531.38 630.201 529.162 630.201 527.685 628.724C491.468 592.507 454.513 555.552 418.298 519.337C416.08 517.119 415.34 515.64 417.558 511.946C435.296 486.076 444.166 456.512 444.166 425.47C444.166 416.601 443.427 407.732 441.948 398.862C427.905 314.605 347.343 256.955 262.347 270.258C254.956 271.737 246.825 273.214 239.434 275.432C237.216 276.172 235 274.693 235 272.476V206.696C235 204.479 236.477 203 238.695 203H415.34C495.903 203 546.9 251.041 546.9 321.996C546.9 358.212 533.597 401.818 486.294 418.818C543.206 429.905 572.03 483.12 572.03 534.119Z" fill="white"/>
</svg>
